<?xml version="1.0" standalone="no"?>
<!DOCTYPE svg PUBLIC "-//W3C//DTD SVG 20010904//EN"
 "http://www.w3.org/TR/2001/REC-SVG-20010904/DTD/svg10.dtd">
<svg version="1.0" xmlns="http://www.w3.org/2000/svg"
 width="531.000000pt" height="483.000000pt" viewBox="0 0 531.000000 483.000000"
 preserveAspectRatio="xMidYMid meet">

<g transform="translate(0.000000,483.000000) scale(0.100000,-0.100000)"
fill="#000000" stroke="none">
<path d="M2072 4248 c-314 -315 -574 -575 -576 -578 -3 -3 302 -313 677 -688
l682 -682 85 84 c47 47 86 89 88 94 1 5 -261 272 -583 593 -322 321 -585 589
-585 594 0 12 781 795 793 795 5 0 187 -178 405 -396 l395 -396 -361 -361
c-199 -199 -362 -367 -362 -372 0 -11 161 -175 171 -175 7 0 909 901 909 909
0 11 -1145 1151 -1156 1151 -5 0 -268 -258 -582 -572z"/>
<path d="M4005 3317 c-710 -710 -1305 -1305 -1323 -1321 l-33 -29 -100 99 -99
99 -91 -91 -91 -91 193 -192 193 -192 1088 1088 c598 598 1088 1080 1088 1071
0 -9 -30 -137 -66 -285 -77 -318 -169 -692 -264 -1078 -38 -154 -90 -367 -115
-472 l-47 -193 -275 0 -275 0 -216 215 c-119 118 -219 215 -222 215 -10 0
-170 -165 -170 -175 0 -6 114 -124 253 -263 l253 -252 426 0 426 0 81 332 c45
183 86 349 91 368 5 19 32 132 60 250 28 118 87 359 130 535 280 1136 405
1656 398 1654 -2 0 -583 -581 -1293 -1292z"/>
<path d="M5 4588 c2 -7 32 -125 65 -263 34 -137 86 -349 115 -470 30 -121 70
-285 89 -365 41 -169 145 -598 216 -885 102 -415 238 -973 257 -1050 l19 -80
425 -3 425 -2 477 477 c262 263 480 481 483 485 7 8 -156 178 -171 178 -6 0
-208 -198 -450 -440 l-439 -440 -273 0 -272 0 -15 53 c-9 28 -34 129 -56 222
-23 94 -81 332 -129 530 -49 198 -135 548 -191 778 -73 297 -99 422 -92 429 8
8 221 -198 733 -710 397 -397 727 -722 733 -722 6 0 50 38 96 85 l85 85 -1060
1060 c-583 583 -1063 1060 -1067 1060 -4 0 -5 -6 -3 -12z"/>
<path d="M655 897 c-70 -18 -110 -42 -160 -92 -84 -83 -125 -201 -125 -355 0
-138 30 -231 103 -324 92 -117 268 -154 379 -81 l38 25 58 -30 c31 -16 63 -30
70 -30 9 0 12 57 12 250 l0 250 33 20 c17 11 42 20 55 20 12 0 22 5 22 10 0 6
-70 10 -191 10 -177 0 -229 -8 -145 -24 67 -13 71 -25 71 -241 0 -143 -3 -196
-13 -208 -7 -8 -34 -25 -60 -37 -82 -39 -150 -16 -203 68 -120 190 -86 616 57
712 56 38 129 35 181 -6 43 -35 95 -115 121 -186 18 -51 32 -62 32 -25 0 65
-23 194 -37 209 -52 58 -201 90 -298 65z"/>
<path d="M1146 881 c-3 -5 10 -12 30 -15 19 -4 44 -16 55 -27 18 -18 19 -36
19 -384 0 -348 -1 -366 -19 -384 -11 -11 -36 -23 -55 -27 -82 -15 -24 -24 154
-24 178 0 236 9 154 24 -19 4 -44 16 -55 27 -18 18 -19 35 -19 279 l0 260 24
-4 c61 -11 153 -94 182 -163 15 -34 34 -52 34 -31 0 25 -123 377 -130 373 -4
-3 -5 -24 -3 -47 6 -54 -16 -84 -69 -94 l-38 -6 0 106 0 106 79 0 c92 0 119
-8 155 -47 30 -32 66 -120 66 -163 0 -16 5 -32 10 -35 6 -4 10 45 10 139 l0
146 -289 0 c-160 0 -292 -4 -295 -9z"/>
<path d="M1760 882 c0 -5 18 -14 40 -21 69 -20 69 -23 70 -412 0 -386 2 -379
-70 -400 -22 -7 -40 -16 -40 -21 0 -4 83 -8 185 -8 172 0 231 9 152 24 -19 3
-44 17 -56 29 -21 23 -21 29 -19 273 l3 249 36 -2 c105 -6 119 -35 128 -273 8
-194 19 -233 75 -273 l31 -22 568 -3 567 -3 0 146 c0 95 -4 144 -10 140 -5 -3
-10 -19 -10 -35 0 -42 -37 -130 -68 -163 -35 -36 -82 -49 -167 -45 l-70 3 -3
268 -2 267 27 0 c57 0 153 -83 189 -162 15 -33 34 -51 34 -31 0 19 -115 360
-125 371 -10 11 -12 3 -11 -43 1 -60 -11 -79 -61 -92 -49 -12 -54 -1 -51 104
l3 98 79 3 c92 3 124 -7 166 -54 29 -33 60 -116 60 -160 0 -13 5 -26 10 -29 6
-4 10 45 10 139 l0 146 -485 0 c-301 0 -485 -4 -485 -10 0 -5 16 -12 35 -16
19 -3 44 -14 55 -24 20 -18 21 -26 20 -385 0 -396 1 -384 -55 -405 -48 -18
-85 -12 -114 19 -42 44 -52 92 -60 271 -8 182 -19 218 -72 248 -16 10 -29 19
-29 22 1 3 23 15 49 28 85 39 105 130 42 193 -49 49 -110 59 -353 59 -120 0
-218 -4 -218 -8z m1149 -27 c16 -8 31 -22 35 -30 3 -9 6 -178 6 -376 0 -344
-1 -360 -20 -379 -11 -11 -31 -22 -45 -26 -37 -9 -111 4 -137 26 l-23 18 0
365 c0 294 3 367 14 381 28 34 123 46 170 21z m-746 -25 c38 -30 50 -82 30
-131 -19 -49 -55 -69 -122 -69 l-50 0 -3 106 c-2 58 -1 108 1 110 2 2 30 4 61
4 43 0 64 -5 83 -20z"/>
<path d="M3500 882 c0 -5 18 -14 40 -21 71 -21 70 -13 70 -407 0 -335 -1 -352
-20 -377 -11 -14 -35 -28 -55 -31 -73 -14 -32 -26 89 -26 122 0 170 11 102 24
-19 4 -44 14 -55 24 -19 16 -20 29 -23 350 -2 182 -1 332 3 332 3 0 15 -19 27
-42 31 -63 95 -179 212 -388 57 -102 118 -212 136 -245 18 -33 40 -61 48 -63
14 -3 16 39 16 401 l0 404 23 20 c44 42 153 38 177 -7 6 -11 10 -159 10 -378
l0 -359 -22 -20 c-13 -12 -38 -24 -55 -28 -79 -16 -21 -25 170 -25 221 0 268
8 357 56 156 85 226 314 166 542 -39 146 -146 239 -301 261 -90 14 -675 14
-675 1 0 -5 15 -12 34 -16 19 -3 44 -16 55 -28 21 -22 21 -31 19 -250 l-3
-228 -49 88 c-27 49 -60 109 -74 134 -14 25 -50 90 -81 145 -30 55 -62 114
-71 130 l-15 30 -127 3 c-71 1 -128 -1 -128 -6z m1091 -49 c126 -41 189 -173
189 -394 -1 -236 -85 -360 -255 -376 l-65 -6 -2 392 c-2 216 -1 395 1 397 10
10 83 3 132 -13z"/>
</g>
</svg>
